<?xml version="1.0" encoding="UTF-8" standalone="no"?>
<svg
   viewBox="0 0 448 512"
   version="1.1"
   id="svg1"
   sodipodi:docname="square-chevron-left.svg"
   inkscape:version="1.4 (1:1.4+202410161351+e7c3feb100)"
   xmlns:inkscape="http://www.inkscape.org/namespaces/inkscape"
   xmlns:sodipodi="http://sodipodi.sourceforge.net/DTD/sodipodi-0.dtd"
   xmlns="http://www.w3.org/2000/svg"
   xmlns:svg="http://www.w3.org/2000/svg">
  <defs
     id="defs1" />
  <sodipodi:namedview
     id="namedview1"
     pagecolor="#ffffff"
     bordercolor="#000000"
     borderopacity="0.25"
     inkscape:showpageshadow="2"
     inkscape:pageopacity="0.0"
     inkscape:pagecheckerboard="0"
     inkscape:deskcolor="#d1d1d1"
     inkscape:zoom="1.5683594"
     inkscape:cx="223.80075"
     inkscape:cy="256"
     inkscape:window-width="1920"
     inkscape:window-height="1011"
     inkscape:window-x="0"
     inkscape:window-y="0"
     inkscape:window-maximized="1"
     inkscape:current-layer="svg1" />
  <!--! Font Awesome Pro 6.0.0-beta1 by @fontawesome - https://fontawesome.com License - https://fontawesome.com/license (Commercial License) -->
  <path
     d="M277.3 362.2L163.6 256l113.7-106.2C279 148.3 279.9 146.1 279.9 144c0-1.969-.7187-3.906-2.156-5.469c-3.016-3.219-8.078-3.406-11.3-.375l-120 112c-3.25 3-3.25 8.688 0 11.69l120 112c3.219 3.031 8.281 2.844 11.3-.375C280.7 370.2 280.6 365.2 277.3 362.2zM448 416V96c0-35.34-28.65-64-64-64H64C28.65 32 0 60.66 0 96v320c0 35.35 28.65 64 64 64h320C419.3 480 448 451.3 448 416zM64 464c-26.47 0-48-21.53-48-48V96c0-26.47 21.53-48 48-48h320c26.47 0 48 21.53 48 48v320c0 26.47-21.53 48-48 48H64z"
     id="path1"
     style="fill:#282828;fill-opacity:1" />
</svg>
