<svg xmlns="http://www.w3.org/2000/svg" version="1.1" xmlns:xlink="http://www.w3.org/1999/xlink" width="1000" height="1000"><style>
    #light-icon {
      display: inline;
    }
    #dark-icon {
      display: none;
    }

    @media (prefers-color-scheme: dark) {
      #light-icon {
        display: none;
      }
      #dark-icon {
        display: inline;
      }
    }
  </style><g id="light-icon"><svg xmlns="http://www.w3.org/2000/svg" version="1.1" xmlns:xlink="http://www.w3.org/1999/xlink" width="1000" height="1000"><g><g transform="matrix(1.953125,0,0,1.953125,0,0)"><svg xmlns="http://www.w3.org/2000/svg" id="Layer_1" data-name="Layer 1" viewBox="0 0 512 512" width="512" height="512"><defs>
    <style>
      .cls-1 {
        stroke: #000;
        stroke-linecap: round;
        stroke-linejoin: round;
        stroke-width: 6px;
      }
    </style>
  </defs><path class="cls-1" d="M400.55,233.81c-1.54-43.6-13.43-82.7-33.49-110.1-22.01-30.07-49.17-53.46-76.47-65.87-27.62-12.55-53.55-13.15-73.02-1.7-17.3,10.18-24.8,27.89-22.95,54.15,1.58,22.45,9.5,48.36,17.88,75.8,11.84,38.75,24.07,78.83,17.81,109.29-7.03,34.22-39.86,46.57-68.81,57.47-22.11,8.32-41.21,15.51-47.89,30.93-3.61,8.33-3.04,17.97,1.74,29.48,6.18,14.88,19.21,27.55,37.69,36.63,17.66,8.68,39.12,13.56,62.04,14.1,1.45.03,2.93.05,4.39.05,29.44,0,58.31-7.12,83.47-20.59,14.55-7.79,27.65-17.63,38.93-29.23,12.17-12.53,22.27-27.19,30-43.56,20.39-43.16,30.3-90.49,28.67-136.85ZM238.91,297.14c5.21-25.35-1.33-55.35-8.53-81.51,3.07-3.03,8.54-8.06,15.41-12.93,12.24,41.75,15.97,72.88,11.41,95.13-3.92,19.12-13.2,28.02-21.39,35.88l-.42.41c-5.07.57-13.6,1.94-23.7,4.17,14.87-10.93,23.79-24.41,27.23-41.16ZM215.48,95.43c.58,2.56,1.08,4.75,1.51,6.68-5.47,3.17-9.69,6.63-13.42,9.79-1.66-18.75,1.44-32,9.69-41.12-.23,9.13.49,17.04,2.23,24.64ZM345.67,169.24c-7.76-28.65-13.02-41.45-22.15-60.42,8.21,2.89,21.3,7.95,33.61,16.26,1.09,1.43,2,2.65,2.86,3.82,9.32,12.74,16.79,28.14,22.22,45.84-10.37-2.92-19.35-4.24-36.53-5.49ZM289.77,180.58c9.1,33.76,12.96,63.64,11.47,88.85-1.28,21.72-6.52,40.1-15.59,54.64-13.96,4.17-27.27,7.1-40.51,8.91,7.27-7.55,14.57-17.39,17.96-33.93,4.83-23.56.88-56.24-12.06-99.86,10.36-6.67,25.09-15.39,38.73-18.61ZM294.11,321.44c7.56-14.36,11.98-31.71,13.15-51.65,1.52-25.75-2.37-56.14-11.56-90.36,15.7-2.85,29.5-5.23,45.26-4.44l.17.63c15.04,56.88,15.43,97.56,1.19,127.95-10.91,5.09-31.97,12.64-48.21,17.86ZM294.11,173.58l-2.37-8.61c-9.42-34.18-13.18-47.79-20.17-67.82,21.9,2.15,34.11,5.52,43.9,8.88,10.16,20.82,15.6,32.68,23.86,62.84-15.73-.55-29.53,1.86-45.21,4.7ZM288.17,174.76c-13.95,3.35-28.51,11.79-38.94,18.43-4.32-14.34-7.79-25.82-10.59-35.1q-11.79-39.01-14.24-50.35c-.17-.78-.35-1.6-.54-2.48,9.66-5,21.69-9.95,41.11-8.67,7.52,21.29,10.98,33.84,20.94,69.99l2.26,8.18ZM280.22,331.9c-8.48,11.1-18.9,20.54-29.02,29.7-12.65,11.46-24.62,22.29-31.34,35.15-16.01-.03-33.65-.43-57.3-4.15,9.82-13.42,31.17-25.52,48.49-35.35,11.46-6.5,21.4-12.14,27.01-17.34,13.9-1.45,27.74-4.08,42.16-8.01ZM226.82,396.68c6.48-10.74,17.17-20.42,28.43-30.61,12.19-11.04,24.8-22.45,34.29-36.87,11.52-3.53,33.27-10.81,48.54-17.17-7.71,14.49-16.53,27.35-25.1,39.82-9.33,13.59-18.16,26.44-24.24,39.76-18.17,3.21-47.97,4.75-61.92,5.08ZM321.04,101.57c-.44-.15-.85-.29-1.25-.43-3.48-7.11-7.84-15.76-12.57-23.94,13.62,9.08,26.92,20.86,39.03,34.59-10.23-5.12-19.64-8.33-25.21-10.22ZM269.38,90.89c-3.6-10.96-5.78-24.98-6.51-32.88,10.59,1.96,21.67,6.09,32.98,12.3,5.93,8.85,11.46,19.32,15.89,28.17-9.15-2.8-21.61-5.71-42.35-7.59ZM222.52,99.17c-.34-1.53-.72-3.21-1.15-5.09-1.96-8.57-2.54-17.74-1.82-28.8.82-.56,1.65-1.1,2.48-1.58,9.83-5.78,21.5-7.99,34.71-6.59.66,8.8,3.02,22.72,6.19,33.31-18.03-.75-30.16,3.61-40.4,8.74ZM206.3,117.51c3.42-2.92,7.24-6.19,12.05-9.17l.15.68q2.51,11.57,14.36,50.82c2.91,9.64,6.54,21.65,11.1,36.79-6.49,4.43-11.94,9.17-15.44,12.43-2.47-8.62-5.09-17.21-7.63-25.53-7.07-23.14-13.75-45.02-16.49-64.41.62-.52,1.25-1.06,1.89-1.61ZM208.07,352c-18.85,10.69-42.21,23.94-52.06,39.5-15.92-2.82-26.48-6.01-32.2-8.03,6.92-9.68,22.68-15.61,40.77-22.42,9.45-3.56,19.21-7.23,28.5-11.75,11.75-3.49,23.54-6.06,32.53-7.64-4.89,3.15-10.91,6.56-17.55,10.33ZM159.19,398.17c24.25,3.98,42.6,4.54,57.95,4.61-8.12,21.02-2.93,42.27.59,52.47-.84,0-1.64-.02-2.43-.04-17.88-.43-35.09-3.69-49.81-9.45l-.26-.47c-4.68-8.34-15.52-27.67-6.04-47.12ZM223.67,402.78c13.14-.14,42.56-1.58,62.29-4.6-8,20.5-7.1,34.67-6.1,46.14-17.69,6.71-36.43,10.37-55.74,10.88-1.4-3.72-3.51-10.34-4.57-18.6-1.6-12.51-.22-23.88,4.12-33.82ZM285.71,441.97c-.91-10.97-1.42-24.62,7.27-45.02,14.86-2.93,45.26-10.36,65.65-19.74-14.15,25.16-34.25,44.82-59.82,58.51-4.22,2.26-8.62,4.36-13.1,6.26ZM317.95,355.26c9.96-14.51,20.26-29.51,28.9-47.16,18.08-8.78,24.87-13.47,36.06-21.21,1.91-1.32,4-2.76,6.3-4.34-4.07,29.11-12.57,57.47-25.27,84.35h0c-.17.36-.34.72-.52,1.08h0c-17.1,9.84-48.84,18.23-67.29,22.16,5.75-11.47,13.58-22.86,21.82-34.87ZM350.62,299.5c11.85-30.67,10.77-70.3-3.3-124.09,18.47,1.4,26.19,2.92,36.86,6.19,4.4,16.39,6.95,34.06,7.6,52.52.47,13.33-.06,26.94-1.56,40.47-4.19,2.82-7.67,5.23-10.77,7.37-9.63,6.66-15.78,10.91-28.83,17.55ZM156.5,441.79c-16.32-8.11-27.74-19.14-33.04-31.91-3.48-8.37-4.27-15.25-2.42-20.97,5.52,2,15.94,5.24,32,8.19-7.92,17.97-1.17,35.44,3.46,44.69Z"></path></svg></g></g></svg></g><g id="dark-icon"><svg xmlns="http://www.w3.org/2000/svg" version="1.1" xmlns:xlink="http://www.w3.org/1999/xlink" width="1000" height="1000"><g><g transform="matrix(1.953125,0,0,1.953125,0,0)"><svg xmlns="http://www.w3.org/2000/svg" id="Layer_1" data-name="Layer 1" viewBox="0 0 512 512" width="512" height="512"><defs>
    <style>
      .cls-1 {
        fill: #fff;
        stroke: #fff;
        stroke-linecap: round;
        stroke-linejoin: round;
        stroke-width: 6px;
      }
    </style>
  </defs><path class="cls-1" d="M400.55,233.81c-1.54-43.6-13.43-82.7-33.49-110.1-22.01-30.07-49.17-53.46-76.47-65.87-27.62-12.55-53.55-13.15-73.02-1.7-17.3,10.18-24.8,27.89-22.95,54.15,1.58,22.45,9.5,48.36,17.88,75.8,11.84,38.75,24.07,78.83,17.81,109.29-7.03,34.22-39.86,46.57-68.81,57.47-22.11,8.32-41.21,15.51-47.89,30.93-3.61,8.33-3.04,17.97,1.74,29.48,6.18,14.88,19.21,27.55,37.69,36.63,17.66,8.68,39.12,13.56,62.04,14.1,1.45.03,2.93.05,4.39.05,29.44,0,58.31-7.12,83.47-20.59,14.55-7.79,27.65-17.63,38.93-29.23,12.17-12.53,22.27-27.19,30-43.56,20.39-43.16,30.3-90.49,28.67-136.85ZM238.91,297.14c5.21-25.35-1.33-55.35-8.53-81.51,3.07-3.03,8.54-8.06,15.41-12.93,12.24,41.75,15.97,72.88,11.41,95.13-3.92,19.12-13.2,28.02-21.39,35.88l-.42.41c-5.07.57-13.6,1.94-23.7,4.17,14.87-10.93,23.79-24.41,27.23-41.16ZM215.48,95.43c.58,2.56,1.08,4.75,1.51,6.68-5.47,3.17-9.69,6.63-13.42,9.79-1.66-18.75,1.44-32,9.69-41.12-.23,9.13.49,17.04,2.23,24.64ZM345.67,169.24c-7.76-28.65-13.02-41.45-22.15-60.42,8.21,2.89,21.3,7.95,33.61,16.26,1.09,1.43,2,2.65,2.86,3.82,9.32,12.74,16.79,28.14,22.22,45.84-10.37-2.92-19.35-4.24-36.53-5.49ZM289.77,180.58c9.1,33.76,12.96,63.64,11.47,88.85-1.28,21.72-6.52,40.1-15.59,54.64-13.96,4.17-27.27,7.1-40.51,8.91,7.27-7.55,14.57-17.39,17.96-33.93,4.83-23.56.88-56.24-12.06-99.86,10.36-6.67,25.09-15.39,38.73-18.61ZM294.11,321.44c7.56-14.36,11.98-31.71,13.15-51.65,1.52-25.75-2.37-56.14-11.56-90.36,15.7-2.85,29.5-5.23,45.26-4.44l.17.63c15.04,56.88,15.43,97.56,1.19,127.95-10.91,5.09-31.97,12.64-48.21,17.86ZM294.11,173.58l-2.37-8.61c-9.42-34.18-13.18-47.79-20.17-67.82,21.9,2.15,34.11,5.52,43.9,8.88,10.16,20.82,15.6,32.68,23.86,62.84-15.73-.55-29.53,1.86-45.21,4.7ZM288.17,174.76c-13.95,3.35-28.51,11.79-38.94,18.43-4.32-14.34-7.79-25.82-10.59-35.1q-11.79-39.01-14.24-50.35c-.17-.78-.35-1.6-.54-2.48,9.66-5,21.69-9.95,41.11-8.67,7.52,21.29,10.98,33.84,20.94,69.99l2.26,8.18ZM280.22,331.9c-8.48,11.1-18.9,20.54-29.02,29.7-12.65,11.46-24.62,22.29-31.34,35.15-16.01-.03-33.65-.43-57.3-4.15,9.82-13.42,31.17-25.52,48.49-35.35,11.46-6.5,21.4-12.14,27.01-17.34,13.9-1.45,27.74-4.08,42.16-8.01ZM226.82,396.68c6.48-10.74,17.17-20.42,28.43-30.61,12.19-11.04,24.8-22.45,34.29-36.87,11.52-3.53,33.27-10.81,48.54-17.17-7.71,14.49-16.53,27.35-25.1,39.82-9.33,13.59-18.16,26.44-24.24,39.76-18.17,3.21-47.97,4.75-61.92,5.08ZM321.04,101.57c-.44-.15-.85-.29-1.25-.43-3.48-7.11-7.84-15.76-12.57-23.94,13.62,9.08,26.92,20.86,39.03,34.59-10.23-5.12-19.64-8.33-25.21-10.22ZM269.38,90.89c-3.6-10.96-5.78-24.98-6.51-32.88,10.59,1.96,21.67,6.09,32.98,12.3,5.93,8.85,11.46,19.32,15.89,28.17-9.15-2.8-21.61-5.71-42.35-7.59ZM222.52,99.17c-.34-1.53-.72-3.21-1.15-5.09-1.96-8.57-2.54-17.74-1.82-28.8.82-.56,1.65-1.1,2.48-1.58,9.83-5.78,21.5-7.99,34.71-6.59.66,8.8,3.02,22.72,6.19,33.31-18.03-.75-30.16,3.61-40.4,8.74ZM206.3,117.51c3.42-2.92,7.24-6.19,12.05-9.17l.15.68q2.51,11.57,14.36,50.82c2.91,9.64,6.54,21.65,11.1,36.79-6.49,4.43-11.94,9.17-15.44,12.43-2.47-8.62-5.09-17.21-7.63-25.53-7.07-23.14-13.75-45.02-16.49-64.41.62-.52,1.25-1.06,1.89-1.61ZM208.07,352c-18.85,10.69-42.21,23.94-52.06,39.5-15.92-2.82-26.48-6.01-32.2-8.03,6.92-9.68,22.68-15.61,40.77-22.42,9.45-3.56,19.21-7.23,28.5-11.75,11.75-3.49,23.54-6.06,32.53-7.64-4.89,3.15-10.91,6.56-17.55,10.33ZM159.19,398.17c24.25,3.98,42.6,4.54,57.95,4.61-8.12,21.02-2.93,42.27.59,52.47-.84,0-1.64-.02-2.43-.04-17.88-.43-35.09-3.69-49.81-9.45l-.26-.47c-4.68-8.34-15.52-27.67-6.04-47.12ZM223.67,402.78c13.14-.14,42.56-1.58,62.29-4.6-8,20.5-7.1,34.67-6.1,46.14-17.69,6.71-36.43,10.37-55.74,10.88-1.4-3.72-3.51-10.34-4.57-18.6-1.6-12.51-.22-23.88,4.12-33.82ZM285.71,441.97c-.91-10.97-1.42-24.62,7.27-45.02,14.86-2.93,45.26-10.36,65.65-19.74-14.15,25.16-34.25,44.82-59.82,58.51-4.22,2.26-8.62,4.36-13.1,6.26ZM317.95,355.26c9.96-14.51,20.26-29.51,28.9-47.16,18.08-8.78,24.87-13.47,36.06-21.21,1.91-1.32,4-2.76,6.3-4.34-4.07,29.11-12.57,57.47-25.27,84.35h0c-.17.36-.34.72-.52,1.08h0c-17.1,9.84-48.84,18.23-67.29,22.16,5.75-11.47,13.58-22.86,21.82-34.87ZM350.62,299.5c11.85-30.67,10.77-70.3-3.3-124.09,18.47,1.4,26.19,2.92,36.86,6.19,4.4,16.39,6.95,34.06,7.6,52.52.47,13.33-.06,26.94-1.56,40.47-4.19,2.82-7.67,5.23-10.77,7.37-9.63,6.66-15.78,10.91-28.83,17.55ZM156.5,441.79c-16.32-8.11-27.74-19.14-33.04-31.91-3.48-8.37-4.27-15.25-2.42-20.97,5.52,2,15.94,5.24,32,8.19-7.92,17.97-1.17,35.44,3.46,44.69Z"></path></svg></g></g></svg></g></svg>