<?xml version="1.0" encoding="UTF-8"?>
<svg id="Layer_1" xmlns="http://www.w3.org/2000/svg" version="1.1" viewBox="0 0 448 512">
  <!-- Generator: Adobe Illustrator 30.3.0, SVG Export Plug-In . SVG Version: 2.1.3 Build 182)  -->
  <defs>
    <style>
      .st0 {
        fill: #beb5ad;
      }
    </style>
  </defs>
  <path class="st0" d="M416,224H31.1c-16.8,0-31.1,14.3-31.1,32s14.3,32,31.1,32h384c18.6,0,32.9-14.3,32.9-32s-14.3-32-32-32ZM416,384H31.1c-16.8,0-31.1,14.3-31.1,31.1s14.3,32.9,31.1,32.9h384c18.6,0,32.9-14.3,32.9-32s-14.3-32-32-32ZM416,64H31.1c-16.8,0-31.1,14.3-31.1,31.1s14.3,32.9,31.1,32.9h384c18.6,0,32.9-14.3,32.9-32s-14.3-32-32-32Z"/>
</svg>