<?xml version="1.0" encoding="UTF-8"?>
<svg id="Layer_1" xmlns="http://www.w3.org/2000/svg" version="1.1" viewBox="0 0 448 512">
  <!-- Generator: Adobe Illustrator 30.3.0, SVG Export Plug-In . SVG Version: 2.1.3 Build 182)  -->
  <defs>
    <style>
      .st0 {
        fill: #beb5ad;
      }
    </style>
  </defs>
  <path class="st0" d="M53.21,467c1.56,24.84,23.02,45,47.9,45h245.8c24.88,0,46.33-20.16,47.9-45l21.19-339H32l21.21,339ZM432,32h-112l-11.58-23.16C305.71,3.42,300.17,0,294.11,0h-140.21c-6.06,0-11.6,3.42-14.31,8.84l-11.59,23.16H16C7.16,32,0,39.16,0,48v32c0,8.84,7.16,16,16,16h416c8.84,0,16-7.16,16-16v-32c0-8.84-7.2-16-16-16Z"/>
</svg>