<?xml version="1.0" encoding="UTF-8"?>
<svg id="Layer_1" xmlns="http://www.w3.org/2000/svg" version="1.1" viewBox="0 0 512 512">
  <!-- Generator: Adobe Illustrator 30.3.0, SVG Export Plug-In . SVG Version: 2.1.3 Build 182)  -->
  <defs>
    <style>
      .st0 {
        fill: #beb5ad;
      }
    </style>
  </defs>
  <path class="st0" d="M383.1,448H63.1V128h156.1l64-64H63.1C28.65,64,0,92.65,0,128v320c0,35.35,28.65,64,63.1,64h319.1c35.34,0,63.1-28.65,63.1-64v-220.1s-63.1,63.99-63.1,63.99v156.11h.9ZM497.9,42.19l-28.13-28.14c-18.75-18.75-49.14-18.75-67.88,0l-38.62,38.63,96.01,96.01,38.62-38.63c18.8-18.73,18.8-49.12,0-67.87ZM147.3,274.4l-19.04,95.22c-1.68,8.4,5.73,15.8,14.12,14.12l95.23-19.04c4.65-.93,8.91-3.21,12.26-6.56l186.8-186.8-96.01-96.01-186.86,186.87c-3.3,3.3-5.6,7.6-6.5,12.2Z"/>
</svg>