<?xml version="1.0" encoding="UTF-8"?>
<svg id="Layer_1" data-name="Layer 1" xmlns="http://www.w3.org/2000/svg" viewBox="0 0 1024 1024">
  <defs>
    <style>
      .cls-1 {
        fill: #beb5ad;
      }
    </style>
  </defs>
  <path class="cls-1" d="M512,136.05c-205.84,0-373.3,168.65-373.3,375.95s167.46,375.94,373.3,375.94,373.3-168.65,373.3-375.94-167.46-375.95-373.3-375.95ZM686.65,757.93l-63.46-.08c6.24-42.84-7.65-74.15-26.9-106.33-19.99-33.42-46.86-63.27-80.36-86.73-1.78,9.53-3.58,18.93-5.37,28.04-4.44,22.66-12.4,56.91-29.87,88.8-21.21,38.73-52.82,63.22-93.93,72.81-9.34,2.18-19.22,3.28-29.35,3.28-26.77,0-54.26-7.78-77.41-21.92-25.73-15.71-45.3-38.58-56.6-66.12-17.72-43.21-10.81-82.52-1.89-107.89,11.1-31.57,29.4-54.86,42.83-66.13,13.42-11.26,28.42-20.34,44.56-26.97,15.95-6.55,33.14-10.77,51.11-12.54,34.39-3.39,69,1.17,106.81,15.15,9.61-59.11,27.01-179.76,29.53-196.72h63.63c-2.45,16.53-24.12,157.62-33.69,225.42,38.88,23.32,73.71,53.91,101.1,89.03,6.25,8.02,12.09,16.23,17.44,24.53l51.14-338.98h63.22l-72.54,483.35Z"/>
  <path class="cls-1" d="M512,12C236.3,12,12,236.3,12,512s224.3,500,500,500,500-224.3,500-500S787.7,12,512,12ZM512,949.08c-241,0-437.07-196.07-437.07-437.08S270.99,74.92,512,74.92s437.08,196.07,437.08,437.08-196.07,437.08-437.08,437.08Z"/>
  <path class="cls-1" d="M338.54,522.88c-12.9,4.37-24.62,10.92-34.82,19.49-7.06,5.92-17.59,20.43-24.05,38.3-5.7,15.77-10.26,40.01.35,65.88,7.44,18.14,21.82,32.98,40.49,41.78,17.01,8.02,36.08,10.45,52.33,6.66,23.61-5.5,41.18-19.1,53.7-41.55,11.58-20.77,17.77-47.04,22.72-72.33,3.05-15.57,6.06-31.55,8.95-47.54-27.24-11.44-53.42-17.24-77.88-17.24-14.9,0-28.96,2.2-41.8,6.55Z"/>
</svg>