<?xml version="1.0" encoding="UTF-8"?>
<svg id="Layer_1" xmlns="http://www.w3.org/2000/svg" version="1.1" viewBox="0 0 433.31 448">
  <!-- Generator: Adobe Illustrator 30.3.0, SVG Export Plug-In . SVG Version: 2.1.3 Build 182)  -->
  <defs>
    <style>
      .st0 {
        fill: #beb5ad;
      }
    </style>
  </defs>
  <path class="st0" d="M295.34,354.47c-8.34-.31-15.34,6.16-15.34,14.5v15.03c0,17.67-14.33,32-32,32H64c-17.67,0-32-14.33-32-32V64c0-17.67,14.33-32,32-32h184c17.67,0,32,14.33,32,32v14.82c0,8.26,6.8,15.08,15.05,14.72.58-.03,1.17-.04,1.76-.04h.18c8.25.03,15.01-6.47,15.01-14.72v-14.79C312,28.64,283.3,0,248,0H64C28.65,0,0,28.65,0,64v320c0,35.35,28.65,64,64,64h184c35.35,0,64-28.65,64-64v-14.78c0-8.24-6.77-14.75-15.01-14.72"/>
  <path class="st0" d="M321.31,303.99c0,4.09,1.56,8.19,4.69,11.31,6.25,6.25,16.38,6.25,22.62,0l80-80c6.25-6.25,6.25-16.38,0-22.62l-80-80c-6.25-6.25-16.38-6.25-22.62,0s-6.25,16.38,0,22.62l52.71,52.69h-217.4c-8.84,0-16,7.2-16,16s7.16,16,16,16h217.4l-52.7,52.7c-3.1,3.1-4.7,7.2-4.7,11.3h0Z"/>
</svg>