<?xml version="1.0" encoding="UTF-8"?>
<svg id="Layer_1" xmlns="http://www.w3.org/2000/svg" version="1.1" viewBox="0 0 603.31 448">
  <!-- Generator: Adobe Illustrator 30.3.0, SVG Export Plug-In . SVG Version: 2.1.3 Build 182)  -->
  <defs>
    <style>
      .st0 {
        fill: #beb5ad;
      }
    </style>
  </defs>
  <path class="st0" d="M603.31,224.01c0-8.84-7.16-16-15.99-15.99h-74.51v-74.51c0-8.84-7.16-16-15.99-15.99s-16,7.16-15.99,15.99l.03,74.53h-74.53c-8.84,0-16,7.16-15.99,15.99,0,8.83,7.15,16,15.99,15.99l74.53-.03v74.51c0,8.83,7.15,16,15.99,15.99,8.84,0,16-7.16,15.99-15.99l-.03-74.51h74.51c8.85.07,16.07-7.14,15.99-15.98Z"/>
  <path class="st0" d="M495.34,354.47c-8.34-.31-15.34,6.16-15.34,14.5v15.03c0,17.67-14.33,32-32,32H64c-17.67,0-32-14.33-32-32V64c0-17.67,14.33-32,32-32h384c17.67,0,32,14.33,32,32v14.82c0,8.26,6.8,15.08,15.05,14.72.58-.03,1.17-.04,1.76-.04h.18c8.25.03,15.01-6.47,15.01-14.72v-14.79C512,28.64,483.3-.01,448-.01H64C28.65,0,0,28.65,0,64v320c0,35.35,28.65,64,64,64h384c35.35,0,64-28.65,64-64v-14.78c0-8.24-6.77-14.75-15.01-14.72"/>
  <path class="st0" d="M226.61,368.9c-.98,0-1.94-.01-2.91-.04-35.69-.85-65.06-16.58-74.81-40.07-4.37-10.52-4.71-20.16-1.03-28.66,6.38-14.74,22.26-20.72,37.62-26.5,30.42-11.45,33.9-18.19,35.75-27.18,3.33-16.18-3.97-40.07-11.02-63.17-5.54-18.14-10.77-35.28-11.88-50.98-1.53-21.67,5.48-37.23,20.82-46.26h0c31.49-18.53,78.46.98,111.69,46.38,14.23,19.44,22.66,46.8,23.72,77.02,1.11,31.48-5.61,63.58-19.43,92.83-23.25,49.21-70.72,66.62-108.51,66.62h0ZM180,309.6c-2.54,1.41-3.62,4.53-2.52,7.22,0,.03.02.06.03.08,4.9,11.8,24.2,20.42,46.92,20.97,28.48.68,65.16-11.79,82.65-48.83,11.71-24.8,17.41-51.94,16.48-78.5-.85-24.08-7.16-45.31-17.76-59.8-25.19-34.42-56.45-46.51-70.96-37.97h0c-2.29,1.35-6.56,3.86-5.61,17.36.86,12.19,5.59,27.7,10.61,44.11,8.19,26.82,16.66,54.54,11.74,78.46-6.5,31.62-34.65,42.21-55.2,49.95-4.85,1.83-12,4.51-16.39,6.95h0Z"/>
</svg>