<?xml version="1.0" encoding="UTF-8" standalone="no"?>
<svg
   viewBox="0 0 448 512"
   version="1.1"
   id="svg1"
   sodipodi:docname="square-chevron-right.svg"
   inkscape:version="1.4 (1:1.4+202410161351+e7c3feb100)"
   xmlns:inkscape="http://www.inkscape.org/namespaces/inkscape"
   xmlns:sodipodi="http://sodipodi.sourceforge.net/DTD/sodipodi-0.dtd"
   xmlns="http://www.w3.org/2000/svg"
   xmlns:svg="http://www.w3.org/2000/svg">
  <defs
     id="defs1" />
  <sodipodi:namedview
     id="namedview1"
     pagecolor="#ffffff"
     bordercolor="#000000"
     borderopacity="0.25"
     inkscape:showpageshadow="2"
     inkscape:pageopacity="0.0"
     inkscape:pagecheckerboard="0"
     inkscape:deskcolor="#d1d1d1"
     inkscape:zoom="1.5683594"
     inkscape:cx="223.80075"
     inkscape:cy="389.89788"
     inkscape:window-width="1920"
     inkscape:window-height="1011"
     inkscape:window-x="0"
     inkscape:window-y="0"
     inkscape:window-maximized="1"
     inkscape:current-layer="svg1" />
  <!--! Font Awesome Pro 6.0.0-beta1 by @fontawesome - https://fontawesome.com License - https://fontawesome.com/license (Commercial License) -->
  <path
     d="M170.7 149.8L284.4 256l-113.7 106.2C168.1 363.7 168.1 365.9 168.1 368c0 1.969 .7187 3.906 2.156 5.469c3.016 3.219 8.078 3.406 11.3 .375l120-112c3.25-3 3.25-8.688 0-11.69l-120-112C178.3 135.1 173.3 135.3 170.3 138.5C167.3 141.8 167.4 146.8 170.7 149.8zM0 96v320c0 35.34 28.65 64 64 64h320c35.35 0 64-28.66 64-64V96c0-35.35-28.65-64-64-64H64C28.65 32 0 60.65 0 96zM384 48c26.47 0 48 21.53 48 48v320c0 26.47-21.53 48-48 48H64c-26.47 0-48-21.53-48-48V96c0-26.47 21.53-48 48-48H384z"
     id="path1"
     style="fill:#282828;fill-opacity:1" />
</svg>
